<svg xmlns="http://www.w3.org/2000/svg" viewBox="0 0 169 340"><defs><style>.cls-1{fill:#19191a;}.cls-1,.cls-2,.cls-3,.cls-4{fill-rule:evenodd;}.cls-2{fill:#dbdbdb;}.cls-3{fill:#28282a;}.cls-4{fill:#131314;}</style></defs><title>Asset 2</title><g id="Layer_2" data-name="Layer 2"><g id="Layer_1-2" data-name="Layer 1"><path class="cls-1" d="M84.5,0,55.15.61Q44.55,3.33,84.5,21.84q40-18.51,29.35-21.23Z"/><path class="cls-2" d="M84.5,21.84Q45.85,3.95,54.51.8,50.57.73,41.25,7.6L84.5,34,127.75,7.6Q118.45.73,114.49.8,123.15,3.95,84.5,21.84Z"/><path class="cls-3" d="M41.25,7.6Q6.21,76.07,0,158.36,11.94,178,26.17,182.6L10.4,325.49A187.39,187.39,0,0,0,84.5,340a187.39,187.39,0,0,0,74.1-14.5L142.83,182.6Q157.07,178,169,158.36,162.79,76.09,127.75,7.6L84.5,34Z"/><path class="cls-4" d="M26.17,182.6l12-82a.86.86,0,0,0-.1-1,.88.88,0,0,0-1-.22.89.89,0,0,0-.52.9l-12.9,81.48C24.51,182,25.34,182.33,26.17,182.6Z"/><path class="cls-4" d="M142.83,182.6l-12-82a.86.86,0,0,1,.1-1,.88.88,0,0,1,1.53.68l12.9,81.48C144.49,182,143.66,182.33,142.83,182.6Z"/><path class="cls-2" d="M84.5,53.46c3.93,0,7.13-4.61,7.13-10.25S88.43,33,84.5,33s-7.13,4.61-7.13,10.26S80.57,53.46,84.5,53.46Z"/><path class="cls-3" d="M84.5,50.54c2.81,0,5.1-3.29,5.1-7.33s-2.29-7.34-5.1-7.34-5.1,3.29-5.1,7.34S81.69,50.54,84.5,50.54Z"/><path class="cls-2" d="M84.5,69.5c3.93,0,7.13-4.61,7.13-10.26S88.43,49,84.5,49s-7.13,4.61-7.13,10.26S80.57,69.5,84.5,69.5Z"/><path class="cls-3" d="M84.5,66.58c2.81,0,5.1-3.3,5.1-7.34s-2.29-7.34-5.1-7.34-5.1,3.3-5.1,7.34S81.69,66.58,84.5,66.58Z"/><path class="cls-2" d="M84.5,85.53c3.93,0,7.13-4.6,7.13-10.25S88.43,65,84.5,65s-7.13,4.61-7.13,10.26S80.57,85.53,84.5,85.53Z"/><path class="cls-3" d="M84.5,82.62c2.81,0,5.1-3.3,5.1-7.34s-2.29-7.34-5.1-7.34-5.1,3.29-5.1,7.34S81.69,82.62,84.5,82.62Z"/><path class="cls-2" d="M84.5,101.57c3.93,0,7.13-4.61,7.13-10.26s-3.2-10.25-7.13-10.25-7.13,4.61-7.13,10.25S80.57,101.57,84.5,101.57Z"/><path class="cls-3" d="M84.5,98.65c2.81,0,5.1-3.29,5.1-7.34S87.31,84,84.5,84s-5.1,3.3-5.1,7.34S81.69,98.65,84.5,98.65Z"/><path class="cls-2" d="M84.5,117.6c3.93,0,7.13-4.6,7.13-10.25s-3.2-10.26-7.13-10.26-7.13,4.61-7.13,10.26S80.57,117.6,84.5,117.6Z"/><path class="cls-3" d="M84.5,114.69c2.81,0,5.1-3.3,5.1-7.34S87.31,100,84.5,100s-5.1,3.3-5.1,7.34S81.69,114.69,84.5,114.69Z"/><path class="cls-2" d="M84.5,133.64c3.93,0,7.13-4.61,7.13-10.26s-3.2-10.25-7.13-10.25-7.13,4.61-7.13,10.25S80.57,133.64,84.5,133.64Z"/><path class="cls-3" d="M84.5,130.72c2.81,0,5.1-3.29,5.1-7.34s-2.29-7.33-5.1-7.33-5.1,3.29-5.1,7.33S81.69,130.72,84.5,130.72Z"/><path class="cls-2" d="M84.5,149.68c3.93,0,7.13-4.61,7.13-10.26s-3.2-10.25-7.13-10.25-7.13,4.6-7.13,10.25S80.57,149.68,84.5,149.68Z"/><path class="cls-3" d="M84.5,146.76c2.81,0,5.1-3.3,5.1-7.34s-2.29-7.34-5.1-7.34-5.1,3.3-5.1,7.34S81.69,146.76,84.5,146.76Z"/><path class="cls-2" d="M84.5,165.71c3.93,0,7.13-4.61,7.13-10.25s-3.2-10.26-7.13-10.26-7.13,4.61-7.13,10.26S80.57,165.71,84.5,165.71Z"/><path class="cls-3" d="M84.5,162.79c2.81,0,5.1-3.29,5.1-7.33s-2.29-7.34-5.1-7.34-5.1,3.29-5.1,7.34S81.69,162.79,84.5,162.79Z"/><path class="cls-2" d="M84.5,181.75c3.93,0,7.13-4.61,7.13-10.26s-3.2-10.25-7.13-10.25-7.13,4.6-7.13,10.25S80.57,181.75,84.5,181.75Z"/><path class="cls-3" d="M84.5,178.83c2.81,0,5.1-3.29,5.1-7.34s-2.29-7.34-5.1-7.34-5.1,3.3-5.1,7.34S81.69,178.83,84.5,178.83Z"/><path class="cls-2" d="M84.5,197.78c3.93,0,7.13-4.6,7.13-10.25s-3.2-10.26-7.13-10.26-7.13,4.61-7.13,10.26S80.57,197.78,84.5,197.78Z"/><path class="cls-3" d="M84.5,194.87c2.81,0,5.1-3.3,5.1-7.34s-2.29-7.34-5.1-7.34-5.1,3.3-5.1,7.34S81.69,194.87,84.5,194.87Z"/><path class="cls-2" d="M84.5,213.82c3.93,0,7.13-4.61,7.13-10.26s-3.2-10.25-7.13-10.25-7.13,4.61-7.13,10.25S80.57,213.82,84.5,213.82Z"/><path class="cls-3" d="M84.5,210.9c2.81,0,5.1-3.29,5.1-7.34s-2.29-7.33-5.1-7.33-5.1,3.29-5.1,7.33S81.69,210.9,84.5,210.9Z"/><path class="cls-2" d="M84.5,229.86c3.93,0,7.13-4.61,7.13-10.26s-3.2-10.26-7.13-10.26S77.37,214,77.37,219.6,80.57,229.86,84.5,229.86Z"/><path class="cls-3" d="M84.5,226.94c2.81,0,5.1-3.3,5.1-7.34s-2.29-7.34-5.1-7.34-5.1,3.3-5.1,7.34S81.69,226.94,84.5,226.94Z"/><path class="cls-2" d="M84.5,245.89c3.93,0,7.13-4.61,7.13-10.25s-3.2-10.26-7.13-10.26-7.13,4.61-7.13,10.26S80.57,245.89,84.5,245.89Z"/><path class="cls-3" d="M84.5,243c2.81,0,5.1-3.29,5.1-7.33s-2.29-7.34-5.1-7.34-5.1,3.29-5.1,7.34S81.69,243,84.5,243Z"/><path class="cls-2" d="M84.5,261.93c3.93,0,7.13-4.61,7.13-10.26s-3.2-10.25-7.13-10.25-7.13,4.6-7.13,10.25S80.57,261.93,84.5,261.93Z"/><path class="cls-3" d="M84.5,259c2.81,0,5.1-3.3,5.1-7.34s-2.29-7.34-5.1-7.34-5.1,3.3-5.1,7.34S81.69,259,84.5,259Z"/><path class="cls-2" d="M84.5,278c3.93,0,7.13-4.6,7.13-10.25s-3.2-10.26-7.13-10.26-7.13,4.61-7.13,10.26S80.57,278,84.5,278Z"/><path class="cls-3" d="M84.5,275c2.81,0,5.1-3.29,5.1-7.33s-2.29-7.34-5.1-7.34-5.1,3.3-5.1,7.34S81.69,275,84.5,275Z"/><path class="cls-2" d="M84.5,294c3.93,0,7.13-4.61,7.13-10.26s-3.2-10.25-7.13-10.25-7.13,4.6-7.13,10.25S80.57,294,84.5,294Z"/><path class="cls-3" d="M84.5,291.08c2.81,0,5.1-3.29,5.1-7.34s-2.29-7.33-5.1-7.33-5.1,3.29-5.1,7.33S81.69,291.08,84.5,291.08Z"/><path class="cls-2" d="M84.5,310c3.93,0,7.13-4.6,7.13-10.25s-3.2-10.26-7.13-10.26-7.13,4.61-7.13,10.26S80.57,310,84.5,310Z"/><path class="cls-3" d="M84.5,307.12c2.81,0,5.1-3.3,5.1-7.34s-2.29-7.34-5.1-7.34-5.1,3.3-5.1,7.34S81.69,307.12,84.5,307.12Z"/><path class="cls-2" d="M84.5,326.07c3.93,0,7.13-4.61,7.13-10.26s-3.2-10.25-7.13-10.25-7.13,4.61-7.13,10.25S80.57,326.07,84.5,326.07Z"/><path class="cls-3" d="M84.5,323.15c2.81,0,5.1-3.29,5.1-7.34s-2.29-7.33-5.1-7.33-5.1,3.29-5.1,7.33S81.69,323.15,84.5,323.15Z"/><path class="cls-2" d="M84.5,339.76c3.93,0,7.13-4.61,7.13-10.26s-3.2-10.26-7.13-10.26-7.13,4.61-7.13,10.26S80.57,339.76,84.5,339.76Z"/><path class="cls-3" d="M84.5,336.84c2.81,0,5.1-3.3,5.1-7.34s-2.29-7.34-5.1-7.34-5.1,3.3-5.1,7.34S81.69,336.84,84.5,336.84Z"/></g></g></svg>