<?xml version="1.0" encoding="utf-8"?>
<!-- Generator: Adobe Illustrator 22.0.1, SVG Export Plug-In . SVG Version: 6.00 Build 0)  -->
<svg version="1.1" id="Layer_1" xmlns="http://www.w3.org/2000/svg" xmlns:xlink="http://www.w3.org/1999/xlink" x="0px" y="0px"
	 viewBox="0 0 144 144" style="enable-background:new 0 0 144 144;" xml:space="preserve">
<style type="text/css">
	.st0{fill:#BCD631;}
</style>
<path class="st0" d="M92.4,120.6H22.8v-78h16.7c1.4,0,2.6-1.1,2.6-2.6V23.4h50.4v17.1l5.1-5.1V20.8c0-1.4-1.1-2.6-2.6-2.6H39.5l0,0
	c-0.2,0-0.3,0-0.5,0l0,0c-0.1,0-0.3,0.1-0.4,0.1c0,0-0.1,0-0.1,0.1c-0.1,0-0.2,0.1-0.3,0.2c0,0-0.1,0-0.1,0.1
	c-0.1,0.1-0.2,0.2-0.3,0.3L18.4,38.2c-0.1,0.1-0.2,0.2-0.3,0.3c0,0,0,0.1-0.1,0.1c0,0.2,0,0.3-0.1,0.4c0,0,0,0.1-0.1,0.1
	c0,0.1-0.1,0.2-0.1,0.4c0,0,0,0,0,0.1s0,0.3,0,0.5c0,0,0,0,0,0.1v83.2c0,1.4,1.1,2.6,2.6,2.6H95c1.4,0,2.6-1.1,2.6-2.6v-46l-5.1,5.1
	L92.4,120.6L92.4,120.6z M36.9,27v10.5H26.4L36.9,27z M39.5,101.2c1.4,0,2.6,1.1,2.6,2.6c0,1.4-1.1,2.6-2.6,2.6h-7
	c-1.4,0-2.6-1.1-2.6-2.6c0-1.4,1.1-2.6,2.6-2.6H39.5z M47.9,90.1H32.4c-1.4,0-2.6-1.1-2.6-2.6c0-1.4,1.1-2.6,2.6-2.6h15.4
	c1.4,0,2.6,1.1,2.6,2.6S49.3,90.1,47.9,90.1z M57.1,74.5H32.4c-1.4,0-2.6-1.1-2.6-2.6c0-1.4,1.1-2.6,2.6-2.6h24.7
	c1.4,0,2.6,1.1,2.6,2.6C59.7,73.3,58.5,74.5,57.1,74.5z M72.4,58.7h-40c-1.4,0-2.6-1.1-2.6-2.6c0-1.4,1.1-2.6,2.6-2.6h39.9
	c1.4,0,2.6,1.1,2.6,2.6C74.9,57.6,73.8,58.7,72.4,58.7z M124.6,29c-2-2-4.6-3.1-7.4-3.1s-5.4,1.1-7.4,3.1l-2.3,2.3l-3.8,3.8
	c-0.1,0.1-0.3,0.3-0.4,0.5c-0.2,0.1-0.3,0.2-0.5,0.4l-5.3,5.3l-5.1,5.1L62.9,75.9l0,0c0,0-0.1,0.1-0.1,0.2c-0.1,0.1-0.2,0.2-0.2,0.3
	c0,0,0,0,0,0.1l-14.8,26c-0.6,1-0.4,2.3,0.4,3.1c0.5,0.5,1.2,0.8,1.8,0.8c0.4,0,0.9-0.1,1.3-0.3l26-14.8c0,0,0,0,0.1,0
	c0.1-0.1,0.2-0.1,0.3-0.2l0.1-0.1l0,0l14.7-14.7l5.1-5.1l20.1-20.1c0.1-0.1,0.3-0.3,0.4-0.5c0.2-0.1,0.3-0.2,0.5-0.4l3.9-3.9
	l2.2-2.2c2-2,3.1-4.6,3.1-7.4C127.7,33.7,126.6,31,124.6,29z M75.9,85.3l-7.6-7.6l24.1-24.1l5.1-5.1l7.1-7.1l7.6,7.6L97.6,63.7
	l-5.1,5.1L75.9,85.3z M61.4,94.3l-2-2L65.3,82l6.4,6.4L61.4,94.3z M121,40.2l-1.9,1.9l-2.4,2.4l-7.6-7.6l2.4-2.4l1.9-1.9
	c1-1,2.4-1.6,3.8-1.6s2.8,0.6,3.8,1.6s1.6,2.4,1.6,3.8C122.6,37.9,122,39.2,121,40.2z"/>
</svg>
