<svg xmlns="http://www.w3.org/2000/svg" viewBox="0 0 127 171.6"><defs><style>.cls-1{fill:#f0d0b4;}.cls-2{fill:#ecc19c;}.cls-3{fill:#383839;}.cls-4{fill:#414042;}</style></defs><title>Asset 2</title><g id="Layer_2" data-name="Layer 2"><g id="Layer_1-2" data-name="Layer 1"><path class="cls-1" d="M78.2,87.07c-2.4-3.18-2.6-18.79-2.6-18.79H51.3s-.2,15.61-2.6,18.79-16.5,8.6-16.5,8.6,5.4,13.91,31.3,13.91S94.8,95.67,94.8,95.67,80.7,90.26,78.2,87.07Z"/><path class="cls-2" d="M76.3,78.9c-.6-5.21-.6-10.73-.6-10.73H51.3s-.1,5.52-.6,10.73C53.8,83.25,58.4,86,63.5,86S73.1,83.25,76.3,78.9Z"/><path class="cls-1" d="M89.8,36.32c0-15.51-11.8-28-26.4-28S37,20.81,37,36.32h0A51.84,51.84,0,0,0,50.3,71.25h0a16.67,16.67,0,0,0,13.1,6.48,17,17,0,0,0,13.1-6.48h0A51.36,51.36,0,0,0,89.8,36.32Z"/><path class="cls-1" d="M85.5,45.13s6-9.88,9.5-4.67c4.9,7.32-12.7,18.9-12.7,18.9Z"/><path class="cls-1" d="M41.5,45.13s-6-9.88-9.5-4.67c-4.9,7.32,12.7,18.9,12.7,18.9Z"/><path class="cls-3" d="M63.5,91.11s-7.2-.21-17.2-5c0,0-7.2,7.11-35.4,12.74A275.13,275.13,0,0,0,0,157.47S19.6,171.6,63.6,171.6V91.11Z"/><path class="cls-3" d="M63.5,91.11s7.2-.21,17.2-5c0,0,7.2,7.11,35.4,12.74A275.13,275.13,0,0,1,127,157.47S107.4,171.6,63.4,171.6V91.11Z"/><path class="cls-4" d="M63.5,146.86,127,130.72S123.7,117.65,115.6,97c-3.1-8-13.5-17.1-15-27.08C95.3,34,95.9,0,63.5,0h0C31.1,0,31.7,34,26.4,69.87,24.9,79.85,14,89,10.9,97,2.8,117.65,0,130.72,0,130.72l63.5,16.14ZM37.1,36.32C48.9,16.67,63.3,18.58,63.5,18.58h0c.2,0,14.6-2,26.4,17.74,0,0-2.7,37.9-26.4,41.41C39.8,74.33,37.1,36.32,37.1,36.32Z"/><path class="cls-3" d="M76.5,77.41h0A51.86,51.86,0,0,0,89.8,42.47h0c0-1.27-.1-2.54-.2-3.82-1,8.18-6,36.21-26.1,39.08-20.1-2.87-25.1-30.8-26.1-39.08a23.2,23.2,0,0,0-.2,3.72h0A51.84,51.84,0,0,0,50.5,77.3h0a16.67,16.67,0,0,0,13.1,6.48A16.47,16.47,0,0,0,76.5,77.41Z"/></g></g></svg>