<?xml version="1.0" encoding="utf-8"?>
<!-- Generator: Adobe Illustrator 22.0.1, SVG Export Plug-In . SVG Version: 6.00 Build 0)  -->
<svg version="1.1" id="Layer_1" xmlns="http://www.w3.org/2000/svg" xmlns:xlink="http://www.w3.org/1999/xlink" x="0px" y="0px"
	 viewBox="0 0 185 272.5" style="enable-background:new 0 0 185 272.5;" xml:space="preserve">
<style type="text/css">
	.st0{fill:#C4B091;stroke:#000000;stroke-width:4;stroke-linecap:round;stroke-linejoin:round;}
</style>
<title>Asset 3</title>
<g id="Layer_2_1_">
	<g id="icons">
		<path class="st0" d="M92.5,177.7c-43,0-63.7-9.1-63.7-9.1c0-53.9-7.2-105.6-7.2-105.6c35.8-15.5,14.3-52.8,14.3-52.8L65.7,2
			c3,14.7,12.1,28.3,26.8,28.3S116.2,16.7,119.3,2l29.8,8.3c0,0-21.5,37.3,14.3,52.8c0,0-7.2,51.7-7.2,105.6
			C156.2,168.7,135.5,177.7,92.5,177.7z"/>
		<path class="st0" d="M31.9,169.8L2,250.9c0,0,23.8,19.6,90.5,19.6s90.5-19.6,90.5-19.6l-29.9-81.1"/>
	</g>
</g>
</svg>
