<?xml version="1.0" encoding="utf-8"?>
<!-- Generator: Adobe Illustrator 22.0.1, SVG Export Plug-In . SVG Version: 6.00 Build 0)  -->
<svg version="1.1" id="Layer_1" xmlns="http://www.w3.org/2000/svg" xmlns:xlink="http://www.w3.org/1999/xlink" x="0px" y="0px"
	 viewBox="0 0 512 512" style="enable-background:new 0 0 512 512;" xml:space="preserve">
<style type="text/css">
	.st0{fill:#C1B19A;}
</style>
<g>
	<g>
		<path class="st0" d="M401.1,247.8l-15.5-19.3c-4.9-6.1-7.6-13.8-7.6-21.7v-70.5c0-9.1-7.4-16.6-16.6-16.6H361V16.6
			C361,7.4,353.5,0,344.4,0h-17.1c-9.1,0-16.6,7.4-16.6,16.6v103.1H207V16.6C207,7.4,199.6,0,190.5,0h-17.1
			c-9.1,0-16.6,7.4-16.6,16.6v103.1h-0.5c-9.1,0-16.6,7.4-16.6,16.6v70.5c0,7.9-2.7,15.6-7.6,21.7l-15.5,19.3
			c-7.2,9-11.1,20.2-11.1,31.7v215.9c0,9.1,7.4,16.6,16.6,16.6h103.7c8.3,0,15.3-6.2,16.4-14.4l15-112.4c0.1-0.9,0.9-1.5,1.7-1.5
			s1.6,0.7,1.7,1.5l15,112.4c1.1,8.2,8.2,14.4,16.4,14.4h103.7c9.1,0,16.6-7.4,16.6-16.6V279.5C412.3,268.1,408.3,256.8,401.1,247.8
			z M326.8,16.6c0-0.3,0.2-0.5,0.5-0.5h17.1c0.3,0,0.5,0.2,0.5,0.5v103.1h-18.2L326.8,16.6L326.8,16.6z M172.8,16.6
			c0-0.3,0.2-0.5,0.5-0.5h17.1c0.3,0,0.5,0.2,0.5,0.5v103.1h-18.2L172.8,16.6L172.8,16.6z M121.5,281.1h26.7v34.7
			c0,14.4-11.7,26.2-26.2,26.2h-0.5V281.1z M226.3,495.5c0,0.3-0.3,0.5-0.5,0.5H122.1c-0.3,0-0.5-0.2-0.5-0.5l0-33.7h109.2
			L226.3,495.5z M250.9,369.6c-5.1,2.6-8.8,7.5-9.6,13.5l-10.5,78.6H121.5V358.1h0.5c23.3,0,42.2-18.9,42.2-42.2v-34.7h86.6
			L250.9,369.6L250.9,369.6z M124.7,265.1c1.2-2.6,2.7-5,4.4-7.2l15.5-19.3c7.2-9,11.1-20.2,11.1-31.7v-70.5c0-0.3,0.2-0.5,0.5-0.5
			h205.2c0.3,0,0.5,0.2,0.5,0.5v70.5c0,11.5,4,22.8,11.1,31.7l15.5,19.3c1.8,2.2,3.3,4.7,4.4,7.2H124.7z M396.2,495.4
			c0,0.3-0.2,0.5-0.5,0.5H292c-0.3,0-0.5-0.2-0.5-0.5l-4.5-33.7h109.2L396.2,495.4L396.2,495.4z M396.2,461.8H287l-10.5-78.6
			c-0.8-6-4.5-10.9-9.6-13.5v-88.5h86.6v34.7c0,23.3,18.9,42.2,42.2,42.2h0.5L396.2,461.8L396.2,461.8z M396.2,342h-0.5
			c-14.4,0-26.2-11.7-26.2-26.2v-34.7h26.7L396.2,342L396.2,342z"/>
	</g>
</g>
<g>
	<g>
		<path class="st0" d="M179.1,199.8L179.1,199.8"/>
	</g>
</g>
</svg>
