<?xml version="1.0" encoding="utf-8"?>
<!-- Generator: Adobe Illustrator 22.0.1, SVG Export Plug-In . SVG Version: 6.00 Build 0)  -->
<svg version="1.1" id="Layer_1" xmlns="http://www.w3.org/2000/svg" xmlns:xlink="http://www.w3.org/1999/xlink" x="0px" y="0px"
	 viewBox="0 0 124.8 264.8" style="enable-background:new 0 0 124.8 264.8;" xml:space="preserve">
<style type="text/css">
	.st0{fill:#C4B091;stroke:#000000;stroke-width:4;stroke-linecap:round;stroke-linejoin:round;}
</style>
<title>Asset 2</title>
<g id="Layer_2_1_">
	<g id="icons">
		<path class="st0" d="M80.4,29.2C85.2,37.4,95.5,41,105.5,41"/>
		<path class="st0" d="M62.4,79.6c0,0-11,76.9-11,104.3s2.1,78.9,2.1,78.9H8.2c0,0-6.2-81.7-6.2-113.9S15.7,2,15.7,2
			s30.9,3.4,46.7,3.4S109.1,2,109.1,2s13.7,114.6,13.7,146.9s-6.2,113.9-6.2,113.9H71.3c0,0,2.1-51.5,2.1-78.9S62.4,79.6,62.4,79.6z
			"/>
		<path class="st0" d="M14.1,15.7c0,0,27.7,4.8,48.3,4.8s48.3-4.8,48.3-4.8"/>
		<path class="st0" d="M44.4,29.2C39.6,37.4,29.2,41,19.3,41"/>
		<path class="st0" d="M107.2,45.8c-9.4-0.4-17.6-7.8-22.2-16.6"/>
	</g>
</g>
</svg>
