<?xml version="1.0" encoding="utf-8"?>
<!-- Generator: Adobe Illustrator 22.0.1, SVG Export Plug-In . SVG Version: 6.00 Build 0)  -->
<svg version="1.1" id="Capa_1" xmlns="http://www.w3.org/2000/svg" xmlns:xlink="http://www.w3.org/1999/xlink" x="0px" y="0px"
	 viewBox="0 0 512 512" style="enable-background:new 0 0 512 512;" xml:space="preserve">
<style type="text/css">
	.st0{fill:#0DDDDD;}
</style>
<g>
	<path class="st0" d="M256,76.4c22.2,0,41.3-14.1,48.2-34.9c-13.1,3.6-29.9,5.8-48.2,5.8c-18.4,0-35.1-2.2-48.2-5.8
		C214.7,62.2,233.8,76.4,256,76.4z"/>
	<path class="st0" d="M511.4,101.9c-1.1-3-3.2-5.4-6.1-6.7l-97.6-45.1c-20.8-7-41.9-12.6-63.3-16.7c-0.8-0.1-1.5-0.2-2.2-0.2
		c-5.3,0-10,3.7-11.2,9c-7.8,34.3-38.2,60-74.9,60c-36.7,0-67.1-25.7-74.9-60c-1.2-5.4-5.9-9-11.2-9c-0.7,0-1.5,0.1-2.2,0.2
		c-21.4,4.1-42.5,9.6-63.3,16.7L6.7,95.2c-2.9,1.3-5.1,3.8-6.1,6.7c-1,3-0.9,6.2,0.6,9l42.4,83.6c2,4,6,6.4,10.3,6.4
		c1.1,0,2.2-0.2,3.3-0.5l47.1-14v280.6c0,6.4,5.2,11.6,11.6,11.6h280.2c6.4,0,11.6-5.2,11.6-11.6V186.5l47.1,14
		c1.1,0.3,2.2,0.5,3.3,0.5c4.3,0,8.3-2.4,10.3-6.4l42.4-83.6C512.2,108.2,512.4,104.9,511.4,101.9z"/>
</g>
</svg>
