<?xml version="1.0" encoding="utf-8"?>
<!-- Generator: Adobe Illustrator 22.0.1, SVG Export Plug-In . SVG Version: 6.00 Build 0)  -->
<svg version="1.1" id="Capa_1" xmlns="http://www.w3.org/2000/svg" xmlns:xlink="http://www.w3.org/1999/xlink" x="0px" y="0px"
	 viewBox="0 0 511.9 511.9" style="enable-background:new 0 0 511.9 511.9;" xml:space="preserve">
<style type="text/css">
	.st0{fill:#E6E9ED;}
	.st1{fill:#656D78;}
	.st2{opacity:0.2;}
	.st3{fill:#FFFFFF;}
	.st4{fill:#CCD1D9;}
	.st5{fill:#00365D;}
	.st6{opacity:0.5;}
	.st7{fill:#3A3847;}
</style>
<g>
	<path class="st0" d="M497.3,197.4c4.1,9,6.6,14.6,6.6,14.6l-80,39.5l-7.3-14.3l0.2-0.1l80-39.4L497.3,197.4z"/>
	<path class="st0" d="M15,197.6l80,39.4l0.2,0.1L88,251.5L8,212c0,0,2.5-5.6,6.6-14.5L15,197.6z"/>
</g>
<path class="st1" d="M351.9,164c0,8.8-7.2,16-16,16c-8.8,0-16-7.2-16-16v-24h32V164z"/>
<g class="st2">
	<path class="st3" d="M327.9,164v-24h-8v24c0,8.8,7.2,16,16,16c1.4,0,2.7-0.2,4-0.6C333.1,177.6,327.9,171.4,327.9,164z"/>
</g>
<g class="st2">
	<path d="M343.9,164v-24h8v24c0,8.8-7.2,16-16,16c-1.4,0-2.7-0.2-4-0.6C338.8,177.6,343.9,171.4,343.9,164z"/>
</g>
<polygon class="st0" points="264,54.3 264,132 248,132 248,54.3 252,52 260,52 "/>
<polygon class="st4" points="327.9,4 260,52 252,52 184,4 "/>
<polygon class="st0" points="184,4 252,52 248,54.3 208,77.7 176,36 "/>
<polygon class="st3" points="188,33 193.5,10.8 184,4 176,36 208,77.7 217.8,71.9 "/>
<polygon class="st0" points="260,52 327.9,4 335.9,36 304,77.7 264,54.3 "/>
<path class="st5" d="M399.9,204v296c0,4.4-3.6,8-8,8H120c-4.4,0-8-3.6-8-8V204l-16.8,33.2l-0.2-0.1l-80-39.4l-0.4-0.2
	C29.7,165.1,66,88.5,80,76c17.8-16,88-40,88-40h8l32,41.7l40-23.4V132h16V54.3l40,23.4l32-41.7h8c0,0,70.1,24,88,40
	c14,12.6,50.3,88.9,65.3,121.4l-0.5,0.2l-80,39.4l-0.2,0.1L399.9,204z M351.9,164v-24h-32v24c0,8.8,7.2,16,16,16
	C344.7,180,351.9,172.8,351.9,164z"/>
<g class="st6">
	<path class="st3" d="M21.2,218.5c0,0,5.3-12.1,9.5-21c15-32.4,45.7-101.3,59.7-113.8c14.6-13.1,73-34.9,90.6-41.2l-5-6.5h-8
		c0,0-70.1,24-88,40c-14,12.6-50.3,89.1-65.3,121.5C10.5,206.4,8,212,8,212L21.2,218.5z"/>
	<path class="st3" d="M120,499.9V204l-8,0v296c0,4.4,3.6,8,8,8h8C123.6,507.9,120,504.3,120,499.9z"/>
</g>
<path class="st3" d="M27.7,203.9L15,197.6l-0.4-0.2C10.5,206.4,8,212,8,212l13.2,6.5C21.2,218.5,24.3,211.3,27.7,203.9z"/>
<g class="st2">
	<path d="M490.7,218.5c0,0-5.3-12.1-9.5-21c-15-32.4-45.7-101.3-59.7-113.8c-14.6-13.1-73-34.9-90.6-41.2l5-6.5h8c0,0,70.1,24,88,40
		c14,12.6,50.3,89.1,65.3,121.5c4.2,8.9,6.6,14.5,6.6,14.5L490.7,218.5z"/>
	<path d="M391.9,499.9V204l8,0v296c0,4.4-3.6,8-8,8h-8C388.3,507.9,391.9,504.3,391.9,499.9z"/>
</g>
<g class="st2">
	<polygon points="323.8,33 318.3,10.8 327.8,4 335.8,36 303.8,77.7 294,71.9 	"/>
</g>
<rect x="248" y="52" class="st3" width="8" height="80"/>
<g>
	<path class="st7" d="M256.2,120c-2.2,0-4-1.8-4-4s1.8-4,4-4h0.1c2.2,0,4,1.8,4,4S258.4,120,256.2,120z"/>
	<path class="st7" d="M256.2,104c-2.2,0-4-1.8-4-4s1.8-4,4-4h0.1c2.2,0,4,1.8,4,4S258.4,104,256.2,104z"/>
	<path class="st7" d="M256.2,88c-2.2,0-4-1.8-4-4c0-2.2,1.8-4,4-4h0.1c2.2,0,4,1.8,4,4C260.2,86.2,258.4,88,256.2,88z"/>
	<path class="st7" d="M399.9,503.9c-2.2,0-4-1.8-4-4V204c0-2.2,1.8-4,4-4c2.2,0,4,1.8,4,4v296C403.9,502.1,402.1,503.9,399.9,503.9z
		"/>
	<path class="st7" d="M503.9,216c-1.5,0-3-0.9-3.6-2.4c-15-33.2-56.9-122-71-134.6c-17-15.3-85.9-38.9-86.6-39.2
		c-2.1-0.7-3.2-3-2.5-5.1c0.7-2.1,3-3.2,5.1-2.5c2.9,1,71.1,24.4,89.4,40.8c18.2,16.4,70.7,132.4,73,137.3c0.9,2,0,4.4-2,5.3
		C505,215.9,504.5,216,503.9,216z"/>
	<path class="st7" d="M423.9,255.5c-1.5,0-2.9-0.8-3.6-2.2c-1-2-0.2-4.4,1.8-5.4l80-39.5c2-1,4.4-0.2,5.4,1.8c1,2,0.2,4.4-1.8,5.4
		l-80,39.5C425.1,255.3,424.5,255.5,423.9,255.5z"/>
	<path class="st7" d="M423.9,255.5c-1.5,0-2.9-0.8-3.6-2.2l-24-47.5c-1-2-0.2-4.4,1.8-5.4c2-1,4.4-0.2,5.4,1.8l24,47.5
		c1,2,0.2,4.4-1.8,5.4C425.2,255.3,424.5,255.5,423.9,255.5z"/>
	<path class="st7" d="M391.9,511.9c-2.2,0-4-1.8-4-4c0-2.2,1.8-4,4-4c2.2,0,4-1.8,4-4c0-2.2,1.8-4,4-4c2.2,0,4,1.8,4,4
		C403.9,506.5,398.6,511.9,391.9,511.9z"/>
	<path class="st7" d="M112,503.9c-2.2,0-4-1.8-4-4V204c0-2.2,1.8-4,4-4c2.2,0,4,1.8,4,4v296C116,502.1,114.2,503.9,112,503.9z"/>
	<path class="st7" d="M8,216c-0.5,0-1.1-0.1-1.6-0.4c-2-0.9-2.9-3.3-2-5.3c2.2-4.9,54.7-120.9,73-137.3
		c18.2-16.4,86.5-39.8,89.4-40.8c2.1-0.7,4.4,0.4,5.1,2.5c0.7,2.1-0.4,4.4-2.5,5.1C168.6,40,99.7,63.7,82.7,79
		c-14.1,12.7-56,101.5-71,134.6C11,215.1,9.5,216,8,216z"/>
	<path class="st7" d="M88,255.5c-0.6,0-1.2-0.1-1.8-0.4l-80-39.5c-2-1-2.8-3.4-1.8-5.4c1-2,3.4-2.8,5.4-1.8l80,39.5
		c2,1,2.8,3.4,1.8,5.4C90.9,254.6,89.5,255.5,88,255.5z"/>
	<path class="st7" d="M88,255.5c-0.6,0-1.2-0.1-1.8-0.4c-2-1-2.8-3.4-1.8-5.4l24-47.5c1-2,3.4-2.8,5.4-1.8c2,1,2.8,3.4,1.8,5.4
		l-24,47.5C90.9,254.7,89.4,255.5,88,255.5z"/>
	<path class="st7" d="M120,511.9c-6.6,0-12-5.4-12-12c0-2.2,1.8-4,4-4c2.2,0,4,1.8,4,4c0,2.2,1.8,4,4,4c2.2,0,4,1.8,4,4
		C124,510.1,122.2,511.9,120,511.9z"/>
	<path class="st7" d="M391.9,511.9H120c-2.2,0-4-1.8-4-4c0-2.2,1.8-4,4-4h272c2.2,0,4,1.8,4,4C395.9,510.1,394.1,511.9,391.9,511.9z
		"/>
	<path class="st7" d="M383.9,495.9H128c-2.2,0-4-1.8-4-4c0-2.2,1.8-4,4-4h256c2.2,0,4,1.8,4,4C387.9,494.1,386.1,495.9,383.9,495.9z
		"/>
	<path class="st7" d="M335.9,40c-1.8,0-3.4-1.2-3.9-3l-8-32c-0.5-2.1,0.8-4.3,2.9-4.8c2.1-0.5,4.3,0.8,4.9,2.9l8,32
		c0.5,2.1-0.8,4.3-2.9,4.8C336.6,40,336.3,40,335.9,40z"/>
	<path class="st7" d="M312,8H200c-2.2,0-4-1.8-4-4c0-2.2,1.8-4,4-4h112c2.2,0,4,1.8,4,4C315.9,6.2,314.2,8,312,8z"/>
	<path class="st7" d="M260,56c-1.3,0-2.5-0.6-3.3-1.7c-1.3-1.8-0.8-4.3,1-5.6l68-48c1.8-1.3,4.3-0.8,5.6,1c1.3,1.8,0.8,4.3-1,5.6
		l-68,48C261.6,55.8,260.8,56,260,56z"/>
	<path class="st7" d="M304,81.7c-0.7,0-1.4-0.2-2-0.5l-44-25.7c-1.9-1.1-2.6-3.6-1.4-5.5c1.1-1.9,3.6-2.5,5.5-1.4l44,25.7
		c1.9,1.1,2.6,3.6,1.4,5.5C306.7,81,305.3,81.7,304,81.7z"/>
	<path class="st7" d="M304,81.7c-0.9,0-1.7-0.3-2.4-0.8c-1.8-1.3-2.1-3.9-0.7-5.6l32-41.7c1.4-1.8,3.9-2.1,5.6-0.7
		c1.8,1.3,2.1,3.9,0.7,5.6l-32,41.7C306.3,81.1,305.1,81.7,304,81.7z"/>
	<path class="st7" d="M176,40c-0.3,0-0.6,0-1-0.1c-2.1-0.5-3.4-2.7-2.9-4.8l8-32c0.5-2.1,2.7-3.5,4.8-2.9c2.1,0.5,3.4,2.7,2.9,4.8
		l-8,32C179.4,38.8,177.8,40,176,40z"/>
	<path class="st7" d="M252,56c-0.8,0-1.6-0.2-2.3-0.7l-68-48c-1.8-1.3-2.2-3.8-1-5.6c1.3-1.8,3.8-2.2,5.6-1l68,48
		c1.8,1.3,2.2,3.8,1,5.6C254.4,55.4,253.2,56,252,56z"/>
	<path class="st7" d="M208,81.7c-1.4,0-2.7-0.7-3.5-2c-1.1-1.9-0.5-4.4,1.4-5.5l44-25.7c1.9-1.1,4.4-0.5,5.5,1.4
		c1.1,1.9,0.5,4.4-1.4,5.5l-44,25.7C209.4,81.5,208.7,81.7,208,81.7z"/>
	<path class="st7" d="M208,81.7c-1.2,0-2.4-0.5-3.2-1.6l-32-41.7c-1.3-1.8-1-4.3,0.7-5.6c1.8-1.3,4.3-1,5.6,0.7l32,41.7
		c1.3,1.8,1,4.3-0.7,5.6C209.7,81.4,208.8,81.7,208,81.7z"/>
	<path class="st7" d="M248,136c-2.2,0-4-1.8-4-4V68c0-2.2,1.8-4,4-4c2.2,0,4,1.8,4,4v64C252,134.2,250.2,136,248,136z"/>
	<path class="st7" d="M264,136h-16c-2.2,0-4-1.8-4-4c0-2.2,1.8-4,4-4h16c2.2,0,4,1.8,4,4C268,134.2,266.2,136,264,136z"/>
	<path class="st7" d="M264,136c-2.2,0-4-1.8-4-4V68c0-2.2,1.8-4,4-4c2.2,0,4,1.8,4,4v64C268,134.2,266.2,136,264,136z"/>
	<path class="st7" d="M351.9,168c-2.2,0-4-1.8-4-4v-20h-24v20c0,2.2-1.8,4-4,4c-2.2,0-4-1.8-4-4v-24c0-2.2,1.8-4,4-4h32
		c2.2,0,4,1.8,4,4v24C355.9,166.2,354.2,168,351.9,168z"/>
	<path class="st7" d="M335.9,184c-11,0-20-9-20-20c0-2.2,1.8-4,4-4c2.2,0,4,1.8,4,4c0,6.6,5.4,12,12,12c6.6,0,12-5.4,12-12
		c0-2.2,1.8-4,4-4c2.2,0,4,1.8,4,4C355.9,175,347,184,335.9,184z"/>
	<path class="st7" d="M343.9,160h-16c-2.2,0-4-1.8-4-4c0-2.2,1.8-4,4-4h16c2.2,0,4,1.8,4,4C347.9,158.2,346.2,160,343.9,160z"/>
	<path class="st7" d="M335.9,184c-2.2,0-4-1.8-4-4v-8c0-2.2,1.8-4,4-4c2.2,0,4,1.8,4,4v8C339.9,182.2,338.2,184,335.9,184z"/>
	<path class="st7" d="M416.8,241.1c-1.5,0-2.9-0.8-3.6-2.2c-1-2-0.2-4.4,1.8-5.4l80-39.5c2-1,4.4-0.2,5.4,1.8c1,2,0.2,4.4-1.8,5.4
		l-80,39.5C418,241,417.4,241.1,416.8,241.1z"/>
	<path class="st7" d="M95.1,241.1c-0.6,0-1.2-0.1-1.8-0.4l-80-39.5c-2-1-2.8-3.4-1.8-5.4c1-2,3.4-2.8,5.4-1.8l80,39.5
		c2,1,2.8,3.4,1.8,5.4C98,240.3,96.5,241.1,95.1,241.1z"/>
</g>
</svg>
