<?xml version="1.0" encoding="utf-8"?>
<!-- Generator: Adobe Illustrator 22.0.1, SVG Export Plug-In . SVG Version: 6.00 Build 0)  -->
<svg version="1.1" id="Layer_1" xmlns="http://www.w3.org/2000/svg" xmlns:xlink="http://www.w3.org/1999/xlink" x="0px" y="0px"
	 viewBox="0 0 496 496" style="enable-background:new 0 0 496 496;" xml:space="preserve">
<g>
	<rect x="232.5" y="136" width="16" height="16"/>
	<rect x="232.5" y="184" width="16" height="16"/>
	<rect x="232.5" y="232" width="16" height="16"/>
	<rect x="232.5" y="88" width="16" height="16"/>
	<path d="M364,57.2l-40.6-14.8V0h-160v42.4l-40.6,14.8c-28.4,10.3-47.4,37.5-47.4,67.7V320h64v176h200v-16h-184V152h-16v104h-16v16
		h16v32h-48v-32h16v-16h-16V124.8c0-23.5,14.8-44.6,36.9-52.6L172.8,56h30.6h0v208c0,13.2,10.8,24,24,24h32c13.2,0,24-10.8,24-24
		v-24h-16v24c0,4.4-3.6,8-8,8h-32c-4.4,0-8-3.6-8-8V56h48v168h16V56h0H314l44.5,16.2c22,8,36.9,29.2,36.9,52.6V256h-48V152h-16v344
		h16V328h64v-16h-64v-40h48v40h16V124.8C411.4,94.7,392.3,67.5,364,57.2z M307.4,40h-128V16h128V40z"/>
</g>
</svg>
