<?xml version="1.0" encoding="utf-8"?>
<!-- Generator: Adobe Illustrator 22.0.1, SVG Export Plug-In . SVG Version: 6.00 Build 0)  -->
<svg version="1.1" id="Layer_1" xmlns="http://www.w3.org/2000/svg" xmlns:xlink="http://www.w3.org/1999/xlink" x="0px" y="0px"
	 viewBox="0 0 496 496" style="enable-background:new 0 0 496 496;" xml:space="preserve">
<style type="text/css">
	.st0{fill:#414042;}
	.st1{fill:#E6E9ED;}
	.st2{fill:#00365D;stroke:#00365D;stroke-miterlimit:10;}
</style>
<rect x="205.4" y="276.1" class="st0" width="11.2" height="13.9"/>
<rect x="270.4" y="269.2" class="st0" width="20.1" height="24.8"/>
<rect x="218.2" y="56" class="st1" width="49.2" height="216"/>
<g>
	<rect x="232.5" y="136" class="st2" width="16" height="16"/>
	<rect x="232.5" y="184" class="st2" width="16" height="16"/>
	<rect x="232.5" y="232" class="st2" width="16" height="16"/>
	<rect x="232.5" y="88" class="st2" width="16" height="16"/>
	<path class="st2" d="M364,57.2l-40.6-14.8V0h-160v42.4l-40.6,14.8c-28.4,10.3-47.4,37.5-47.4,67.7V320h64v176h200v-16h-184V152h-16
		v104h-16v16h16v32h-48v-32h16v-16h-16V124.8c0-23.5,14.8-44.6,36.9-52.6L172.8,56h30.6l0,0v208c0,13.2,10.8,24,24,24h32
		c13.2,0,24-10.8,24-24v-24h-16v24c0,4.4-3.6,8-8,8h-32c-4.4,0-8-3.6-8-8V56h48v168h16V56l0,0H314l44.5,16.2
		c22,8,36.9,29.2,36.9,52.6V256h-48V152h-16v344h16V328h64v-16h-64v-40h48v40h16V124.8C411.4,94.7,392.3,67.5,364,57.2z M307.4,40
		h-128V16h128V40z"/>
</g>
<rect x="155.4" y="285.6" class="st0" width="176" height="201.4"/>
<rect x="86.8" y="190.6" class="st0" width="56.5" height="65.4"/>
<rect x="85.4" y="272" class="st1" width="59.6" height="36"/>
<rect x="107.4" y="256" class="st0" width="16" height="16"/>
<rect x="347.4" y="272" class="st1" width="56.7" height="40"/>
<rect x="341.8" y="147" class="st0" width="62.3" height="109"/>
<rect x="283.4" y="147" class="st0" width="48" height="143.1"/>
<rect x="174.7" y="10" class="st1" width="132.7" height="33.8"/>
<path class="st0" d="M401.4,152H286.1c-1.5,0-2.7-1.2-2.7-2.7V58.7c0-1.5,1.2-2.7,2.7-2.7h42.6c41.7,0,75.4,33.8,75.4,75.4v17.9
	C404.1,150.8,402.9,152,401.4,152z"/>
<rect x="86.8" y="290" class="st2" width="8" height="8"/>
<rect x="393" y="292" class="st2" width="8" height="8"/>
<rect x="267.4" y="224" class="st2" width="16" height="16"/>
<path class="st0" d="M87.1,152h118.2V56h-34.7c-46.1,0-83.5,37.4-83.5,83.5V152z"/>
<rect x="87.1" y="147" class="st0" width="56.5" height="65.4"/>
<rect x="155.4" y="147" class="st0" width="53.9" height="147"/>
</svg>
