<?xml version="1.0" encoding="utf-8"?>
<!-- Generator: Adobe Illustrator 22.0.1, SVG Export Plug-In . SVG Version: 6.00 Build 0)  -->
<svg version="1.1" id="Capa_1" xmlns="http://www.w3.org/2000/svg" xmlns:xlink="http://www.w3.org/1999/xlink" x="0px" y="0px"
	 viewBox="0 0 512 512" style="enable-background:new 0 0 512 512;" xml:space="preserve">
<style type="text/css">
	.st0{fill:#C3B091;}
</style>
<g>
	<g>
		<path class="st0" d="M432,0H80c-8.8,0-16,7.2-16,16v64c0,8.8,7.2,16,16,16h352c8.8,0,16-7.2,16-16V16C448,7.2,440.8,0,432,0z
			 M416,64H96V32h320V64z"/>
	</g>
</g>
<g>
	<g>
		<path class="st0" d="M480,494.8l-32-416c-0.6-8.8-9.3-15.4-17.2-14.7c-8.8,0.7-15.4,8.4-14.7,17.2L446.7,480H317.8l-46-306.4
			c-1.2-7.8-7.9-13.6-15.8-13.6c-7.9,0-14.7,5.8-15.8,13.6l-46,306.4H65.3L96,81.2c0.7-8.8-5.9-16.5-14.7-17.2
			C72.1,63.5,64.7,70,64,78.8l-32,416c-0.4,4.4,1.2,8.8,4.2,12.1c3,3.3,7.3,5.1,11.7,5.1h160c7.9,0,14.7-5.8,15.8-13.6L256,283.9
			l32.2,214.5c1.2,7.8,7.9,13.6,15.8,13.6h160c4.5,0,8.7-1.8,11.7-5.1S480.3,499.2,480,494.8z"/>
	</g>
</g>
<g>
	<g>
		<path class="st0" d="M162.5,64.2c-8.8-1.3-16.9,4.6-18.3,13.3c-0.4,2.7-11.4,66.5-70.3,66.5c-8.8,0-16,7.2-16,16s7.2,16,16,16
			c69.2,0,97-61.2,102-93.6C177.2,73.7,171.2,65.6,162.5,64.2z"/>
	</g>
</g>
<g>
	<g>
		<path class="st0" d="M438.2,144c-58.9,0-69.9-63.8-70.4-66.5c-1.4-8.7-9.3-14.6-18.3-13.3c-8.7,1.4-14.7,9.5-13.3,18.2
			c5,32.4,32.7,93.6,102,93.6c8.9,0,16-7.2,16-16S447,144,438.2,144z"/>
	</g>
</g>
</svg>
