<?xml version="1.0" encoding="iso-8859-1"?>
<!-- Generator: Adobe Illustrator 19.0.0, SVG Export Plug-In . SVG Version: 6.00 Build 0)  -->
<svg xmlns="http://www.w3.org/2000/svg" xmlns:xlink="http://www.w3.org/1999/xlink" version="1.1" id="Layer_1" x="0px" y="0px" viewBox="0 0 512 512" style="enable-background:new 0 0 512 512;" xml:space="preserve" width="512px" height="512px">
<g>
	<g>
		<path d="M486.238,211.926L465.284,86.207c-3.391-20.343-18.568-36.487-38.665-41.125l-80.203-18.508L331.079,3.57    c-1.281-1.921-3.326-3.196-5.615-3.5c-0.352-0.047-0.703-0.062-1.055-0.061V0H187.591v0.006c-0.351,0-0.703,0.016-1.055,0.064    c-2.289,0.304-4.335,1.58-5.615,3.5l-15.336,23.005L85.38,45.084c-20.097,4.638-35.273,20.78-38.665,41.125L25.762,211.926    c-0.62,3.717,1.432,7.363,4.93,8.762l80.473,32.189v251.107c0,4.428,3.589,8.017,8.017,8.017h273.637    c4.427,0,8.017-3.588,8.017-8.017V252.877l80.473-32.189C484.805,219.288,486.857,215.642,486.238,211.926z M331.971,33.81    L297.05,89.683c-0.035,0.057-0.127,0.203-0.363,0.245c-0.236,0.037-0.372-0.068-0.423-0.11L268.49,67.599l54.32-47.53    L331.971,33.81z M303.072,16.033L256,57.222l-47.073-41.189H303.072z M265.086,85.409v76.529c0,0.294-0.239,0.534-0.534,0.534    h-17.102c-0.295,0-0.534-0.24-0.534-0.534V85.409L256,78.14L265.086,85.409z M189.191,20.068l54.32,47.53l-27.773,22.219    c-0.051,0.041-0.186,0.146-0.423,0.11c-0.236-0.041-0.328-0.188-0.363-0.244L180.031,33.81L189.191,20.068z M111.165,235.608    l-68.526-27.411l2.647-15.877l65.879,26.353V235.608z M384.802,495.967H127.198v-18.171h257.603V495.967z M392.818,145.37    c-4.427,0-8.017,3.588-8.017,8.017v308.376H127.198V153.386c0-4.428-3.589-8.017-8.017-8.017s-8.017,3.588-8.017,8.017v48.017    L47.984,176.13L62.53,88.844c2.32-13.919,12.705-24.964,26.455-28.139l77.734-17.939l34.634,55.416    c2.503,4.005,6.61,6.756,11.267,7.55c0.925,0.157,1.852,0.235,2.778,0.235c3.736,0,7.398-1.265,10.354-3.63l5.127-4.1v63.701    c0,9.136,7.432,16.568,16.568,16.568h17.102c9.136,0,16.568-7.432,16.568-16.568V98.237l5.127,4.101    c2.958,2.365,6.619,3.63,10.354,3.63c0.925,0,1.853-0.077,2.778-0.235c4.656-0.793,8.763-3.544,11.267-7.551l34.634-55.415    l77.735,17.938c13.75,3.175,24.136,14.219,26.455,28.139l14.548,87.286l-63.183,25.273v-48.017    C400.835,148.958,397.246,145.37,392.818,145.37z M400.835,235.608v-16.936l65.88-26.351l2.647,15.877L400.835,235.608z" fill="#00365d"/>
	</g>
</g>
<g>
</g>
<g>
</g>
<g>
</g>
<g>
</g>
<g>
</g>
<g>
</g>
<g>
</g>
<g>
</g>
<g>
</g>
<g>
</g>
<g>
</g>
<g>
</g>
<g>
</g>
<g>
</g>
<g>
</g>
</svg>
