<?xml version="1.0" encoding="iso-8859-1"?>
<!-- Generator: Adobe Illustrator 19.0.0, SVG Export Plug-In . SVG Version: 6.00 Build 0)  -->
<svg xmlns="http://www.w3.org/2000/svg" xmlns:xlink="http://www.w3.org/1999/xlink" version="1.1" id="Capa_1" x="0px" y="0px" viewBox="0 0 512 512" style="enable-background:new 0 0 512 512;" xml:space="preserve" width="512px" height="512px">
<g>
	<g>
		<path d="M432.016,0h-352c-8.832,0-16,7.168-16,16v64c0,8.832,7.168,16,16,16h352c8.832,0,16-7.168,16-16V16    C448.016,7.168,440.848,0,432.016,0z M416.016,64h-320V32h320V64z" fill="#f5f5dc"/>
	</g>
</g>
<g>
	<g>
		<path d="M479.952,494.784l-32-416c-0.64-8.832-9.312-15.36-17.152-14.72c-8.8,0.672-15.392,8.384-14.72,17.184L446.736,480    H317.808l-45.984-306.368c-1.152-7.84-7.904-13.632-15.808-13.632c-7.936,0-14.656,5.792-15.84,13.632L194.224,480H65.296    L95.952,81.248c0.672-8.8-5.92-16.512-14.72-17.184c-9.088-0.576-16.512,5.92-17.184,14.72l-32,416    c-0.352,4.448,1.184,8.8,4.224,12.096c3.04,3.264,7.296,5.12,11.744,5.12h160c7.936,0,14.656-5.792,15.84-13.632l32.16-214.496    l32.192,214.496c1.152,7.84,7.904,13.632,15.808,13.632h160c4.48,0,8.704-1.824,11.744-5.12S480.304,499.232,479.952,494.784z" fill="#f5f5dc"/>
	</g>
</g>
<g>
	<g>
		<path d="M162.512,64.224c-8.832-1.344-16.896,4.576-18.304,13.28C143.76,80.224,132.816,144,73.872,144c-8.832,0-16,7.168-16,16    c0,8.832,7.168,16,16,16c69.248,0,96.96-61.216,101.952-93.568C177.168,73.728,171.216,65.6,162.512,64.224z" fill="#f5f5dc"/>
	</g>
</g>
<g>
	<g>
		<path d="M438.16,144c-58.944,0-69.888-63.776-70.368-66.464c-1.408-8.704-9.344-14.624-18.304-13.312    c-8.672,1.376-14.656,9.504-13.312,18.208C341.168,114.784,368.88,176,438.16,176c8.864,0,16-7.168,16-16    C454.16,151.168,446.992,144,438.16,144z" fill="#f5f5dc"/>
	</g>
</g>
<g>
</g>
<g>
</g>
<g>
</g>
<g>
</g>
<g>
</g>
<g>
</g>
<g>
</g>
<g>
</g>
<g>
</g>
<g>
</g>
<g>
</g>
<g>
</g>
<g>
</g>
<g>
</g>
<g>
</g>
</svg>
